<?xml version="1.0" encoding="UTF-8"?>
<svg width="461px" height="629px" viewBox="0 0 461 629" version="1.1" xmlns="http://www.w3.org/2000/svg" xmlns:xlink="http://www.w3.org/1999/xlink">
    <!-- Generator: Sketch 52.4 (67378) - http://www.bohemiancoding.com/sketch -->
    <title>ya</title>
    <desc>Created with Sketch.</desc>
    <defs>
        <path d="M6,0 L455,0 C458.313708,-6.08718376e-16 461,2.6862915 461,6 L461,623 C461,626.313708 458.313708,629 455,629 L6,629 C2.6862915,629 4.05812251e-16,626.313708 0,623 L0,6 C-4.05812251e-16,2.6862915 2.6862915,6.08718376e-16 6,0 Z" id="path-1"></path>
        <path d="M83.5955967,208.974511 C46.4622463,195.272009 20,159.710451 20,118 C20,64.4283793 63.6522369,21 117.5,21 C171.347763,21 215,64.4283793 215,118 C215,159.378725 188.956992,194.705973 152.288343,208.64344 L198.917526,336 L37.0876289,336 L83.5955967,208.974511 Z" id="path-3"></path>
    </defs>
    <g id="Page-1" stroke="none" stroke-width="1" fill="none" fill-rule="evenodd">
        <g id="Cover" transform="translate(-1443.000000, -15.000000)">
            <g id="ya" transform="translate(1443.000000, 15.000000)">
                <mask id="mask-2" fill="white">
                    <use xlink:href="#path-1"></use>
                </mask>
                <use id="bg" fill="#C5B0B7" xlink:href="#path-1"></use>
                <g id="img" mask="url(#mask-2)">
                    <rect id="Rectangle-7" stroke="#2F3061" stroke-width="2" fill-rule="nonzero" x="46" y="560" width="369" height="23"></rect>
                    <path d="M46,46 L46,69 L415,69 L415,46 L46,46 Z" id="Rectangle-7" stroke="#2F3061" stroke-width="2" fill-rule="nonzero"></path>
                    <rect id="Rectangle-8" stroke="#2F3061" stroke-width="2" fill-rule="nonzero" x="46" y="46" width="23" height="537"></rect>
                    <rect id="Rectangle-8" stroke="#2F3061" stroke-width="2" fill-rule="nonzero" x="392" y="46" width="23" height="537"></rect>
                    <polygon id="Star" fill="#2F3061" fill-rule="nonzero" points="58 61 55.3966976 63.4058132 55.6545056 59.8704694 52.1504325 59.3351256 55.0752163 57.3324372 53.3090111 54.2590612 56.6983488 55.2970934 58 52 59.3016512 55.2970934 62.6909889 54.2590612 60.9247837 57.3324372 63.8495675 59.3351256 60.3454944 59.8704694 60.6033024 63.4058132"></polygon>
                    <polygon id="Star" fill="#2F3061" fill-rule="nonzero" points="403 61 400.396698 63.4058132 400.654506 59.8704694 397.150433 59.3351256 400.075216 57.3324372 398.309011 54.2590612 401.698349 55.2970934 403 52 404.301651 55.2970934 407.690989 54.2590612 405.924784 57.3324372 408.849567 59.3351256 405.345494 59.8704694 405.603302 63.4058132"></polygon>
                    <polygon id="Star" fill="#2F3061" fill-rule="nonzero" points="58 574 55.3966976 576.405813 55.6545056 572.870469 52.1504325 572.335126 55.0752163 570.332437 53.3090111 567.259061 56.6983488 568.297093 58 565 59.3016512 568.297093 62.6909889 567.259061 60.9247837 570.332437 63.8495675 572.335126 60.3454944 572.870469 60.6033024 576.405813"></polygon>
                    <polygon id="Star" fill="#2F3061" fill-rule="nonzero" points="403 574 400.396698 576.405813 400.654506 572.870469 397.150433 572.335126 400.075216 570.332437 398.309011 567.259061 401.698349 568.297093 403 565 404.301651 568.297093 407.690989 567.259061 405.924784 570.332437 408.849567 572.335126 405.345494 572.870469 405.603302 576.405813"></polygon>
                    <g id="keyhole" transform="translate(113.000000, 135.000000)">
                        <mask id="mask-4" fill="white">
                            <use xlink:href="#path-3"></use>
                        </mask>
                        <use id="Mask" fill="#FFFFFF" fill-rule="nonzero" xlink:href="#path-3"></use>
                        <polygon id="Rectangle-9" fill="#DBC9BE" fill-rule="nonzero" mask="url(#mask-4)" points="21 178 60 178 60 338 21 338"></polygon>
                        <polygon id="Rectangle-9" fill="#E2EFF3" fill-rule="nonzero" mask="url(#mask-4)" points="60 178 99 178 99 338 60 338"></polygon>
                        <polygon id="Rectangle-9" fill="#E897A3" fill-rule="nonzero" mask="url(#mask-4)" points="99 178 138 178 138 338 99 338"></polygon>
                        <polygon id="Rectangle-9" fill="#FFD478" fill-rule="nonzero" mask="url(#mask-4)" points="138 178 177 178 177 338 138 338"></polygon>
                        <polygon id="Rectangle-9" fill="#75ABBC" fill-rule="nonzero" mask="url(#mask-4)" points="177 178 216 178 216 338 177 338"></polygon>
                        <polygon id="Rectangle-9" fill="#73AB9B" fill-rule="nonzero" mask="url(#mask-4)" points="21 18 60 18 60 178 21 178"></polygon>
                        <polygon id="Rectangle-9" fill="#9D8DF1" fill-rule="nonzero" mask="url(#mask-4)" points="60 18 99 18 99 178 60 178"></polygon>
                        <polygon id="Rectangle-9" fill="#FFA770" fill-rule="nonzero" mask="url(#mask-4)" points="99 18 138 18 138 178 99 178"></polygon>
                        <polygon id="Rectangle-9" fill="#7A73C2" fill-rule="nonzero" mask="url(#mask-4)" points="138 18 177 18 177 178 138 178"></polygon>
                        <polygon id="Rectangle-9" fill="#FF6B6B" fill-rule="nonzero" mask="url(#mask-4)" points="177 18 216 18 216 178 177 178"></polygon>
                        <path d="M82.9437283,209.698997 C46.1529386,195.751069 20,160.179707 20,118.5 C20,64.6522369 63.6522369,21 117.5,21 C171.347763,21 215,64.6522369 215,118.5 C215,160.179707 188.847061,195.751069 152.056272,209.698997 L198,336 L37,336 L82.9437283,209.698997 Z" id="Combined-Shape" stroke="#2F3061" stroke-width="2" fill-rule="nonzero"></path>
                        <path d="M58.3876731,219.070133 C23.4667512,198.702763 0,160.841858 0,117.5 C0,52.6065419 52.6065419,0 117.5,0 C182.393458,0 235,52.6065419 235,117.5 C235,160.500158 211.901806,198.105444 177.436118,218.585158 L227.000325,355 L8.999674,355 L58.3876731,219.070133 Z" id="Combined-Shape" stroke="#2F3061" stroke-width="2" fill-rule="nonzero"></path>
                    </g>
                    <path d="M6,1 C3.23857625,1 1,3.23857625 1,6 L1,623 C1,625.761424 3.23857625,628 6,628 L455,628 C457.761424,628 460,625.761424 460,623 L460,6 C460,3.23857625 457.761424,1 455,1 L6,1 Z" id="border" stroke="#2F3061" stroke-width="2"></path>
                </g>
            </g>
        </g>
    </g>
</svg>